<?xml version="1.0" ?><svg style="enable-background:new 0 0 24 24;" version="1.1" viewBox="0 0 24 24" xml:space="preserve" xmlns="http://www.w3.org/2000/svg" xmlns:xlink="http://www.w3.org/1999/xlink"><g id="info"/><g id="icons"><g id="settings2"><path d="M5,11h14c2.2,0,4-1.8,4-4c0-2.2-1.8-4-4-4H5C2.8,3,1,4.8,1,7C1,9.2,2.8,11,5,11z M5,5c1.1,0,2,0.9,2,2c0,1.1-0.9,2-2,2    S3,8.1,3,7C3,5.9,3.9,5,5,5z"/><path d="M19,13H5c-2.2,0-4,1.8-4,4c0,2.2,1.8,4,4,4h14c2.2,0,4-1.8,4-4C23,14.8,21.2,13,19,13z M19,19c-1.1,0-2-0.9-2-2    c0-1.1,0.9-2,2-2s2,0.9,2,2C21,18.1,20.1,19,19,19z"/></g></g></svg>