<?xml version="1.0" encoding="UTF-8" standalone="no"?>
<svg
   height="1696.143px"
   style="enable-background:new 0 0 1696.162 1696.143;"
   version="1.1"
   viewBox="0 0 1696.162 1696.143"
   width="1696.162px"
   xml:space="preserve"
   id="svg6"
   sodipodi:docname="edit.svg"
   inkscape:version="1.2.2 (b0a8486541, 2022-12-01)"
   xmlns:inkscape="http://www.inkscape.org/namespaces/inkscape"
   xmlns:sodipodi="http://sodipodi.sourceforge.net/DTD/sodipodi-0.dtd"
   xmlns="http://www.w3.org/2000/svg"
   xmlns:svg="http://www.w3.org/2000/svg"><defs
     id="defs10" /><sodipodi:namedview
     id="namedview8"
     pagecolor="#ffffff"
     bordercolor="#000000"
     borderopacity="0.25"
     inkscape:showpageshadow="2"
     inkscape:pageopacity="0.0"
     inkscape:pagecheckerboard="0"
     inkscape:deskcolor="#d1d1d1"
     showgrid="false"
     inkscape:zoom="0.4380527"
     inkscape:cx="808.12194"
     inkscape:cy="850.3543"
     inkscape:window-width="1920"
     inkscape:window-height="999"
     inkscape:window-x="0"
     inkscape:window-y="0"
     inkscape:window-maximized="1"
     inkscape:current-layer="svg6" /><g
     id="pen"
     transform="matrix(0.7298299,0,0,0.7298299,229.12596,229.12353)"><path
       d="M 1648.016,305.367 1390.795,48.149 C 1359.747,17.098 1318.466,0 1274.555,0 1230.648,0 1189.367,17.098 1158.319,48.148 L 81.585,1124.866 c -10.22,10.22 -16.808,23.511 -18.75,37.833 L 0.601,1621.186 c -2.774,20.448 4.161,41.015 18.753,55.605 12.473,12.473 29.313,19.352 46.714,19.352 2.952,0 5.923,-0.197 8.891,-0.601 l 458.488,-62.231 c 14.324,-1.945 27.615,-8.529 37.835,-18.752 L 1648.016,537.844 c 31.049,-31.048 48.146,-72.33 48.146,-116.237 0,-43.911 -17.098,-85.192 -48.146,-116.24 z M 493.598,1505.366 143.217,1552.924 190.777,1202.548 953.78,439.557 1256.598,742.376 Z M 1554.575,444.404 1350.039,648.937 1047.218,346.119 1251.753,141.587 c 8.22,-8.218 17.814,-9.446 22.802,-9.446 4.988,0 14.582,1.228 22.803,9.446 l 257.221,257.218 c 8.217,8.217 9.443,17.812 9.443,22.799 0,4.987 -1.227,14.582 -9.447,22.8 z"
       id="path2" /></g><g
     id="Layer_1" /></svg>
