<?xml version="1.0" encoding="UTF-8"?>
<svg id="_Слой_1" data-name="Слой 1" xmlns="http://www.w3.org/2000/svg" viewBox="0 0 198 157.54">
  <defs>
    <style>
      .cls-1 {
        fill: #7219c1;
      }

      .cls-1, .cls-2, .cls-3, .cls-4 {
        opacity: .75;
      }

      .cls-5 {
        fill: #fff;
      }

      .cls-2 {
        fill: #0048f4;
      }

      .cls-3 {
        fill: #ff5a66;
      }

      .cls-4 {
        fill: #f1a22e;
      }
    </style>
  </defs>
  <g>
    <circle class="cls-5" cx="86.64" cy="92.95" r="64.59"/>
    <circle class="cls-5" cx="127.08" cy="65.11" r="39.91"/>
    <circle class="cls-5" cx="69.32" cy="78.77" r="52.51"/>
    <circle class="cls-5" cx="116.05" cy="118.15" r="38.33"/>
    <circle class="cls-5" cx="187.24" cy="86.38" r="10.76"/>
    <circle class="cls-5" cx="166.99" cy="106.07" r="5.25"/>
    <circle class="cls-5" cx="99.77" cy="9.45" r="9.45"/>
    <circle class="cls-5" cx="4.73" cy="92.95" r="4.73"/>
    <circle class="cls-5" cx="23.63" cy="146.51" r="5.78"/>
    <g>
      <path class="cls-5" d="m85.64,64.24c8.22,0,16.44,0,24.66,0,3.69,0,6.71,3.01,6.72,6.72.01,8.39,0,16.78,0,25.17,0,4-2.99,7-6.99,7-14.53,0-29.06,0-43.6-.01-.76,0-1.3.2-1.84.75-2.72,2.77-5.47,5.5-8.22,8.23-.28.28-.6.55-.94.74-.57.32-.98.12-1.14-.52-.06-.24-.06-.5-.06-.76,0-13.45,0-26.9,0-40.36,0-3.39,2.14-6.09,5.42-6.85.43-.1.88-.11,1.32-.11,8.22,0,16.44,0,24.66,0Z"/>
      <path class="cls-5" d="m122.88,115.77v-.75c0-10.02,0-20.04,0-30.05,0-1.96-1.04-3.47-2.88-4.12-.41-.15-.55-.37-.56-.78-.04-1.74.05-1.81,1.69-1.17,2.41.94,4.03,3.4,4.03,6.16,0,8.7,0,17.41,0,26.11,0,1.8,0,3.6,0,5.4,0,.21,0,.43-.02.63-.18,1.57-1.58,2.21-2.88,1.31-.24-.17-.46-.38-.67-.59-2.01-2-4.03-4-6.01-6.03-.53-.54-1.08-.77-1.84-.77-11.23.02-22.45.01-33.68.01-3.01,0-5.54-2.05-6.23-5-.13-.55,0-.77.56-.71.06,0,.13,0,.19,0,.88-.14,1.35.16,1.74,1.06.7,1.64,2.12,2.44,3.9,2.48,1.67.04,3.35,0,5.02,0,9.85,0,19.7,0,29.55-.01.64,0,1.11.17,1.57.64,1.89,1.94,3.82,3.84,5.74,5.76.18.18.4.33.61.5.06-.03.12-.06.19-.1Z"/>
    </g>
  </g>
  <g>
    <circle class="cls-2" cx="86.64" cy="92.95" r="64.59"/>
    <circle class="cls-4" cx="127.08" cy="65.11" r="39.91"/>
    <circle class="cls-1" cx="69.32" cy="78.77" r="52.51"/>
    <circle class="cls-3" cx="116.05" cy="118.15" r="38.33"/>
    <circle class="cls-2" cx="187.24" cy="86.38" r="10.76"/>
    <circle class="cls-3" cx="166.99" cy="106.07" r="5.25"/>
    <circle class="cls-3" cx="99.77" cy="9.45" r="9.45"/>
    <circle class="cls-1" cx="4.73" cy="92.95" r="4.73"/>
    <circle class="cls-4" cx="23.63" cy="146.51" r="5.78"/>
    <g>
      <path class="cls-5" d="m85.64,64.24c8.22,0,16.44,0,24.66,0,3.69,0,6.71,3.01,6.72,6.72.01,8.39,0,16.78,0,25.17,0,4-2.99,7-6.99,7-14.53,0-29.06,0-43.6-.01-.76,0-1.3.2-1.84.75-2.72,2.77-5.47,5.5-8.22,8.23-.28.28-.6.55-.94.74-.57.32-.98.12-1.14-.52-.06-.24-.06-.5-.06-.76,0-13.45,0-26.9,0-40.36,0-3.39,2.14-6.09,5.42-6.85.43-.1.88-.11,1.32-.11,8.22,0,16.44,0,24.66,0Z"/>
      <path class="cls-5" d="m122.88,115.77v-.75c0-10.02,0-20.04,0-30.05,0-1.96-1.04-3.47-2.88-4.12-.41-.15-.55-.37-.56-.78-.04-1.74.05-1.81,1.69-1.17,2.41.94,4.03,3.4,4.03,6.16,0,8.7,0,17.41,0,26.11,0,1.8,0,3.6,0,5.4,0,.21,0,.43-.02.63-.18,1.57-1.58,2.21-2.88,1.31-.24-.17-.46-.38-.67-.59-2.01-2-4.03-4-6.01-6.03-.53-.54-1.08-.77-1.84-.77-11.23.02-22.45.01-33.68.01-3.01,0-5.54-2.05-6.23-5-.13-.55,0-.77.56-.71.06,0,.13,0,.19,0,.88-.14,1.35.16,1.74,1.06.7,1.64,2.12,2.44,3.9,2.48,1.67.04,3.35,0,5.02,0,9.85,0,19.7,0,29.55-.01.64,0,1.11.17,1.57.64,1.89,1.94,3.82,3.84,5.74,5.76.18.18.4.33.61.5.06-.03.12-.06.19-.1Z"/>
    </g>
  </g>
</svg>