<?xml version="1.0" encoding="UTF-8" standalone="no"?>
<svg
   data-name="Layer 2"
   id="e8de1841-eb36-4a1b-bc66-894a956e3d92"
   viewBox="0 0 35 35"
   version="1.1"
   sodipodi:docname="refresh.svg"
   inkscape:version="1.2.2 (b0a8486541, 2022-12-01)"
   xmlns:inkscape="http://www.inkscape.org/namespaces/inkscape"
   xmlns:sodipodi="http://sodipodi.sourceforge.net/DTD/sodipodi-0.dtd"
   xmlns="http://www.w3.org/2000/svg"
   xmlns:svg="http://www.w3.org/2000/svg">
  <defs
     id="defs9" />
  <sodipodi:namedview
     id="namedview7"
     pagecolor="#ffffff"
     bordercolor="#000000"
     borderopacity="0.25"
     inkscape:showpageshadow="2"
     inkscape:pageopacity="0.0"
     inkscape:pagecheckerboard="0"
     inkscape:deskcolor="#d1d1d1"
     showgrid="false"
     inkscape:zoom="21.228571"
     inkscape:cx="16.628533"
     inkscape:cy="17.5"
     inkscape:window-width="1920"
     inkscape:window-height="999"
     inkscape:window-x="0"
     inkscape:window-y="0"
     inkscape:window-maximized="1"
     inkscape:current-layer="layer1" />
  <g
     inkscape:groupmode="layer"
     id="layer1"
     inkscape:label="Layer 1"
     transform="matrix(0.6048466,0,0,0.6048466,6.9136837,6.9151752)">
    <path
       d="m 17.505,34.727 a 17.227,17.227 0 1 1 15.859,-23.9 1.25,1.25 0 0 1 -2.3,0.969 14.727,14.727 0 1 0 -7.873,19.282 1.2501986,1.2501986 0 0 1 0.969,2.305 17.127,17.127 0 0 1 -6.655,1.344 z"
       id="path2" />
    <path
       d="m 33.426,13.217 h -0.01 l -9.788,-0.075 a 1.2500081,1.2500081 0 0 1 0.009,-2.5 h 0.009 l 8.539,0.065 0.065,-8.538 a 1.25,1.25 0 0 1 1.25,-1.24 h 0.009 a 1.249,1.249 0 0 1 1.241,1.259 l -0.074,9.788 a 1.251,1.251 0 0 1 -1.25,1.241 z"
       id="path4" />
  </g>
</svg>
