<?xml version="1.0" encoding="UTF-8" standalone="no"?>
<svg
   fill="none"
   height="20"
   viewBox="0 0 20 20"
   width="20"
   version="1.1"
   id="svg4"
   sodipodi:docname="send.svg"
   inkscape:version="1.2.2 (b0a8486541, 2022-12-01)"
   xmlns:inkscape="http://www.inkscape.org/namespaces/inkscape"
   xmlns:sodipodi="http://sodipodi.sourceforge.net/DTD/sodipodi-0.dtd"
   xmlns="http://www.w3.org/2000/svg"
   xmlns:svg="http://www.w3.org/2000/svg">
  <defs
     id="defs8" />
  <sodipodi:namedview
     id="namedview6"
     pagecolor="#ffffff"
     bordercolor="#000000"
     borderopacity="0.25"
     inkscape:showpageshadow="2"
     inkscape:pageopacity="0.0"
     inkscape:pagecheckerboard="0"
     inkscape:deskcolor="#d1d1d1"
     showgrid="false"
     inkscape:zoom="37.15"
     inkscape:cx="8.9367429"
     inkscape:cy="10"
     inkscape:window-width="1920"
     inkscape:window-height="999"
     inkscape:window-x="0"
     inkscape:window-y="0"
     inkscape:window-maximized="1"
     inkscape:current-layer="svg4" />
  <path
     d="M 0.97397204,0.29823118 19.561088,9.4570994 c 0.29985,0.1477578 0.423203,0.5106521 0.275398,0.8105006 -0.05896,0.119602 -0.155797,0.216445 -0.275398,0.275397 L 0.97434732,19.701659 c -0.29984944,0.147686 -0.6627072,0.02445 -0.810465,-0.275395 -0.06460624,-0.131101 -0.07958053,-0.28121 -0.042163,-0.422479 L 1.9632451,12.049628 c 0.060901,-0.230001 0.2508834,-0.402986 0.4855575,-0.442087 l 8.3296164,-1.388846 c 0.102047,-0.01707 0.186422,-0.08437 0.226975,-0.176011 l 0.02179,-0.072758 C 11.050788,9.8286088 10.972221,9.6938642 10.8456,9.6409516 L 10.778419,9.6216595 2.4017734,8.2255499 C 2.1670145,8.1864254 1.9769726,8.0133433 1.916119,7.7832569 L 0.1213078,0.99598325 C 0.03579558,0.67281902 0.22846426,0.34153202 0.55162867,0.25603196 0.69288589,0.21866275 0.84289536,0.23364917 0.97397204,0.29823118 Z"
     fill="#212121"
     id="path2"
     style="fill:#000000;fill-opacity:1;stroke-width:1.21054" />
</svg>
