<svg width="682.667" height="682.667" xmlns="http://www.w3.org/2000/svg"><defs><clipPath clipPathUnits="userSpaceOnUse" id="a"><path d="M0 512h512V0H0Z" transform="translate(-190.558 -273.298)"/></clipPath></defs><path d="M0 0h3.747c56.105 0 112.21.014 168.315-.041 2.737-.002 5.604-.187 8.187-1 8.47-2.666 13.4-11 12.17-19.983-1.164-8.502-8.686-15.039-17.719-15.39-.953-.037-1.908-.014-2.861-.014H.992c1.071-1.141 1.71-1.86 2.388-2.541C21.93-57.58 40.501-76.17 59.029-94.804c8.489-8.537 7.7-21.28-1.654-28.153-7.338-5.392-17.094-4.528-23.923 2.254-9.291 9.227-18.504 18.533-27.748 27.808-20.326 20.392-40.65 40.786-60.974 61.179-9.145 9.176-9.088 19.596.146 28.72 29.612 29.256 59.231 58.503 88.82 87.782 5.371 5.315 11.603 7.514 18.966 5.34C65.92 86.211 70.058 69.763 60.176 59.8 46.985 46.501 33.581 33.415 20.267 20.238 14.103 14.138 7.936 8.041 1.776 1.937 1.303 1.469.874.956 0 0" style="fill:#000;fill-opacity:1;fill-rule:nonzero;stroke:#e6e6e6 icc-color(sRGB-IEC61966-2,.1,.9019928,.9019928,.9019928);stroke-width:1;stroke-linecap:butt;stroke-linejoin:miter;stroke-miterlimit:10;stroke-dasharray:none;stroke-opacity:1" transform="matrix(2.66667 0 0 -2.66667 166.905 293.865)" clip-path="url(#a)"/></svg>