<?xml version="1.0" encoding="iso-8859-1"?>
<!-- Uploaded to: SVG Repo, www.svgrepo.com, Generator: SVG Repo Mixer Tools -->
<svg fill="#000000" height="800px" width="800px" version="1.1" id="Layer_1" xmlns="http://www.w3.org/2000/svg" xmlns:xlink="http://www.w3.org/1999/xlink" 
	 viewBox="0 0 512 512" xml:space="preserve">
<g>
	<g>
		<path d="M493.041,317.96v-0.001c10.47,0,18.959-8.489,18.959-18.959s-8.489-18.959-18.959-18.959h-63.937v-67.486l61.727-61.727
			c7.404-7.403,7.404-19.408,0-26.812c-7.402-7.403-19.406-7.404-26.812,0l-34.915,34.915c0-28.698-21.982-47.17-45.675-47.17
			h-20.371c-21.019-118.998-193.054-119.245-214.117,0h-20.371c-23.809,0-45.675,18.585-45.675,47.17l-34.915-34.915
			c-7.403-7.404-19.408-7.404-26.812,0c-7.404,7.404-7.404,19.408,0,26.812l61.727,61.727v67.488H18.959
			C8.489,280.042,0,288.53,0,299.001s8.489,18.959,18.959,18.959h63.955c0.164,20.07,3.756,39.336,10.228,57.241L21.17,447.172
			c-7.404,7.404-7.404,19.408,0,26.812c7.403,7.404,19.408,7.405,26.812,0l63.02-63.02c68.486,104.79,221.473,104.852,289.998,0
			l63.02,63.019c7.403,7.404,19.408,7.405,26.812,0c7.404-7.404,7.404-19.408,0-26.812L418.859,375.2
			c6.47-17.904,10.063-37.171,10.228-57.241H493.041z M237.041,450.373c-65.598-9.248-116.227-65.743-116.227-133.851
			c0-9.663,0-154.053,0-159.087c0-4.276,3.48-7.755,7.757-7.755c15.286,0,100.079,0,108.47,0V450.373z M187.747,111.761
			c19.166-68.909,117.342-68.902,136.507,0H187.747z M391.186,316.521c0,68.108-50.629,124.603-116.227,133.85V149.679
			c8.659,0,93.048,0,108.47,0c4.277,0,7.757,3.48,7.757,7.755C391.186,161.78,391.186,306.251,391.186,316.521z"/>
	</g>
</g>
</svg>