<svg height="800" width="800" xmlns="http://www.w3.org/2000/svg" viewBox="0 0 512 512" xml:space="preserve"><path d="M493.041 317.96v-.001c10.47 0 18.959-8.489 18.959-18.959s-8.489-18.959-18.959-18.959h-63.937v-67.486l61.727-61.727c7.404-7.403 7.404-19.408 0-26.812-7.402-7.403-19.406-7.404-26.812 0l-34.915 34.915c0-28.698-21.982-47.17-45.675-47.17h-20.371c-21.019-118.998-193.054-119.245-214.117 0H128.57c-23.809 0-45.675 18.585-45.675 47.17L47.98 124.016c-7.403-7.404-19.408-7.404-26.812 0s-7.404 19.408 0 26.812l61.727 61.727v67.488H18.959C8.489 280.042 0 288.53 0 299.001s8.489 18.959 18.959 18.959h63.955c.164 20.07 3.756 39.336 10.228 57.241L21.17 447.172c-7.404 7.404-7.404 19.408 0 26.812 7.403 7.404 19.408 7.405 26.812 0l63.02-63.02c68.486 104.79 221.473 104.852 289.998 0l63.02 63.019c7.403 7.404 19.408 7.405 26.812 0 7.404-7.404 7.404-19.408 0-26.812L418.859 375.2c6.47-17.904 10.063-37.171 10.228-57.241h63.954zm-256 132.413c-65.598-9.248-116.227-65.743-116.227-133.851V157.435c0-4.276 3.48-7.755 7.757-7.755h108.47v300.693zm-49.294-338.612c19.166-68.909 117.342-68.902 136.507 0H187.747zm203.439 204.76c0 68.108-50.629 124.603-116.227 133.85V149.679h108.47c4.277 0 7.757 3.48 7.757 7.755v159.087z"/></svg>