<svg height="1696.143" style="enable-background:new 0 0 1696.162 1696.143" width="1696.162" xml:space="preserve" xmlns="http://www.w3.org/2000/svg"><path d="M1431.897 451.99 1244.17 264.263c-22.66-22.662-52.788-35.14-84.836-35.14-32.044 0-62.172 12.478-84.832 35.14l-785.833 785.82a48.213 48.213 0 0 0-13.684 27.612l-45.42 334.618a48.218 48.218 0 0 0 13.686 40.582 48.219 48.219 0 0 0 40.582 13.685l334.619-45.418a48.214 48.214 0 0 0 27.613-13.686l785.832-785.819c22.66-22.66 35.139-52.788 35.139-84.833 0-32.048-12.479-62.176-35.139-84.836zM589.37 1327.784l-255.719 34.709 34.71-255.715 556.863-556.854 221.006 221.007ZM1363.7 553.463l-149.276 149.274-221.008-221.005 149.276-149.274c5.999-5.998 13-6.894 16.641-6.894 3.64 0 10.643.896 16.643 6.894l187.727 187.725c5.997 5.997 6.892 13 6.892 16.64 0 3.64-.896 10.642-6.895 16.64z"/></svg>