<svg id="_Слой_1" data-name="Слой 1" xmlns="http://www.w3.org/2000/svg" viewBox="0 0 254 254"><defs><filter id="drop-shadow-1" filterUnits="userSpaceOnUse"><feOffset dx="7" dy="7"/><feGaussianBlur result="blur" stdDeviation="5"/><feFlood flood-color="#000" flood-opacity=".5"/><feComposite in2="blur" operator="in"/><feComposite in="SourceGraphic"/></filter><filter id="drop-shadow-2" filterUnits="userSpaceOnUse"><feOffset dx="7" dy="7"/><feGaussianBlur result="blur-2" stdDeviation="5"/><feFlood flood-color="#000" flood-opacity=".5"/><feComposite in2="blur-2" operator="in"/><feComposite in="SourceGraphic"/></filter><filter id="drop-shadow-3" filterUnits="userSpaceOnUse"><feOffset dx="7" dy="7"/><feGaussianBlur result="blur-3" stdDeviation="5"/><feFlood flood-color="#000" flood-opacity=".5"/><feComposite in2="blur-3" operator="in"/><feComposite in="SourceGraphic"/></filter><filter id="drop-shadow-4" filterUnits="userSpaceOnUse"><feOffset dx="7" dy="7"/><feGaussianBlur result="blur-4" stdDeviation="5"/><feFlood flood-color="#000" flood-opacity=".5"/><feComposite in2="blur-4" operator="in"/><feComposite in="SourceGraphic"/></filter><filter id="drop-shadow-5" filterUnits="userSpaceOnUse"><feOffset dx="7" dy="7"/><feGaussianBlur result="blur-5" stdDeviation="5"/><feFlood flood-color="#000" flood-opacity=".75"/><feComposite in2="blur-5" operator="in"/><feComposite in="SourceGraphic"/></filter><style>.cls-1{fill:#fff}</style></defs><path class="cls-1" d="M232 120c0 2.35-.07 4.69-.22 7-.17 2.71-.43 5.4-.79 8.06-5.92 44.06-37.44 79.99-79.1 92.34-10.1 3-20.81 4.61-31.89 4.61-55.74 0-101.97-40.71-110.56-94.02a113.19 113.19 0 0 1-1.43-17.97C8 59.55 55.88 10.3 115.78 8.08c1.4-.05 2.8-.08 4.21-.08 11.64 0 22.86 1.77 33.4 5.07 45.54 14.2 78.59 56.71 78.59 106.93Z"/><path class="cls-1" d="M232 120c0 2.35-.07 4.69-.22 7a63.84 63.84 0 0 1-3.72 2.62c-10.89 7.16-23.93 11.33-37.94 11.33-1.12 0-2.24-.03-3.34-.08-1.33-.06-2.64-.17-3.94-.31-4.27-.44-8.44-1.27-12.44-2.47-1.55-.46-3.09-.97-4.59-1.54-13.84-5.19-25.56-14.68-33.56-26.84-7.17-10.91-11.33-23.95-11.33-37.97 0-.51 0-1.02.03-1.52.4-19.31 8.73-36.67 21.85-48.97a69.64 69.64 0 0 1 10.61-8.17C198.95 27.28 232 69.79 232 120.01Z"/><path class="cls-1" d="M181.01 95.41v.79c0 .6 0 1.19-.03 1.78-.03.97-.07 1.95-.13 2.91a90.273 90.273 0 0 1-10.45 37.19c-1.77 3.36-3.77 6.6-5.96 9.7-.89 1.27-1.82 2.52-2.77 3.74-13.16 16.78-32.06 28.83-53.76 33.16a90.76 90.76 0 0 1-17.95 1.77c-34.92 0-65.24-19.65-80.51-48.49a113.19 113.19 0 0 1-1.43-17.97C8 59.55 55.88 10.3 115.78 8.08a90.369 90.369 0 0 1 27 13.17C165.92 37.76 181 64.82 181 95.42Z"/><path class="cls-1" d="M230.99 135.05c-5.92 44.06-37.44 79.99-79.1 92.34-20.72-6.2-37.18-22.24-43.98-42.7a66.55 66.55 0 0 1-3.38-20.99c0-4.28.4-8.48 1.19-12.54.24-1.26.51-2.5.82-3.73.85-3.38 1.96-6.65 3.31-9.8 4.79-11.25 12.61-20.9 22.41-27.94 10.91-7.85 24.29-12.46 38.75-12.46.56 0 1.12 0 1.69.02 1.41.04 2.81.11 4.19.25 1.39.11 2.76.28 4.11.48.97.14 1.93.31 2.88.5 18.77 3.68 34.71 15.26 44.21 31.13 1.06 1.76 2.04 3.58 2.93 5.44Z"/><path class="cls-1" d="M118.26 70.22h42.76c6.4 0 11.64 5.22 11.65 11.65.02 14.55 0 29.09 0 43.64 0 6.94-5.19 12.14-12.12 12.14-25.2 0-50.4 0-75.6-.02-1.31 0-2.26.36-3.19 1.3-4.71 4.8-9.48 9.53-14.25 14.27-.49.49-1.03.95-1.63 1.29-.99.56-1.7.21-1.98-.9-.1-.42-.1-.87-.1-1.31V82.3c0-5.87 3.72-10.57 9.4-11.89.74-.17 1.53-.19 2.29-.2 14.25-.01 28.51 0 42.76 0Z"/><path class="cls-1" d="M182.83 159.58v-53.41c0-3.41-1.8-6.01-5-7.14-.72-.25-.95-.63-.97-1.36-.07-3.02.09-3.14 2.92-2.03 4.18 1.64 6.99 5.89 6.99 10.68v54.65c0 .37.01.74-.03 1.1-.31 2.73-2.73 3.83-5 2.27-.42-.29-.79-.66-1.15-1.02-3.48-3.48-6.99-6.93-10.43-10.45-.92-.94-1.88-1.34-3.2-1.34-19.47.03-38.93.02-58.4.02-5.22 0-9.61-3.55-10.81-8.66-.22-.95 0-1.33.98-1.24.11.01.22.02.33 0 1.53-.24 2.35.28 3.01 1.84 1.21 2.84 3.67 4.23 6.75 4.3 2.9.07 5.8.02 8.7.02 17.08 0 34.16 0 51.23-.02 1.11 0 1.93.3 2.72 1.11 3.29 3.36 6.63 6.67 9.96 9.98.32.32.7.58 1.05.87.11-.06.22-.11.32-.17Z"/><path d="M232 120c0 2.35-.07 4.69-.22 7-.17 2.71-.43 5.4-.79 8.06-5.92 44.06-37.44 79.99-79.1 92.34-10.1 3-20.81 4.61-31.89 4.61-55.74 0-101.97-40.71-110.56-94.02a113.19 113.19 0 0 1-1.43-17.97C8 59.55 55.88 10.3 115.78 8.08c1.4-.05 2.8-.08 4.21-.08 11.64 0 22.86 1.77 33.4 5.07 45.54 14.2 78.59 56.71 78.59 106.93Z" style="opacity:.75;fill:#005af4;filter:url(#drop-shadow-1)"/><path d="M232 120c0 2.35-.07 4.69-.22 7a63.84 63.84 0 0 1-3.72 2.62c-10.89 7.16-23.93 11.33-37.94 11.33-1.12 0-2.24-.03-3.34-.08-1.33-.06-2.64-.17-3.94-.31-4.27-.44-8.44-1.27-12.44-2.47-1.55-.46-3.09-.97-4.59-1.54-13.84-5.19-25.56-14.68-33.56-26.84-7.17-10.91-11.33-23.95-11.33-37.97 0-.51 0-1.02.03-1.52.4-19.31 8.73-36.67 21.85-48.97a69.64 69.64 0 0 1 10.61-8.17C198.95 27.28 232 69.79 232 120.01Z" style="fill:#ffc42f;filter:url(#drop-shadow-2)"/><path d="M181.01 95.41v.79c0 .6 0 1.19-.03 1.78-.03.97-.07 1.95-.13 2.91a90.273 90.273 0 0 1-10.45 37.19c-1.77 3.36-3.77 6.6-5.96 9.7-.89 1.27-1.82 2.52-2.77 3.74-13.16 16.78-32.06 28.83-53.76 33.16a90.76 90.76 0 0 1-17.95 1.77c-34.92 0-65.24-19.65-80.51-48.49a113.19 113.19 0 0 1-1.43-17.97C8 59.55 55.88 10.3 115.78 8.08a90.369 90.369 0 0 1 27 13.17C165.92 37.76 181 64.82 181 95.42Z" style="fill:#8e19c1;filter:url(#drop-shadow-3);opacity:.75"/><path d="M230.99 135.05c-5.92 44.06-37.44 79.99-79.1 92.34-20.72-6.2-37.18-22.24-43.98-42.7a66.55 66.55 0 0 1-3.38-20.99c0-4.28.4-8.48 1.19-12.54.24-1.26.51-2.5.82-3.73.85-3.38 1.96-6.65 3.31-9.8 4.79-11.25 12.61-20.9 22.41-27.94 10.91-7.85 24.29-12.46 38.75-12.46.56 0 1.12 0 1.69.02 1.41.04 2.81.11 4.19.25 1.39.11 2.76.28 4.11.48.97.14 1.93.31 2.88.5 18.77 3.68 34.71 15.26 44.21 31.13 1.06 1.76 2.04 3.58 2.93 5.44Z" style="fill:#ff5066;filter:url(#drop-shadow-4);opacity:.75"/><g style="filter:url(#drop-shadow-5)"><path class="cls-1" d="M118.26 70.22h42.76c6.4 0 11.64 5.22 11.65 11.65.02 14.55 0 29.09 0 43.64 0 6.94-5.19 12.14-12.12 12.14-25.2 0-50.4 0-75.6-.02-1.31 0-2.26.36-3.19 1.3-4.71 4.8-9.48 9.53-14.25 14.27-.49.49-1.03.95-1.63 1.29-.99.56-1.7.21-1.98-.9-.1-.42-.1-.87-.1-1.31V82.3c0-5.87 3.72-10.57 9.4-11.89.74-.17 1.53-.19 2.29-.2 14.25-.01 28.51 0 42.76 0Z"/><path class="cls-1" d="M182.83 159.58v-53.41c0-3.41-1.8-6.01-5-7.14-.72-.25-.95-.63-.97-1.36-.07-3.02.09-3.14 2.92-2.03 4.18 1.64 6.99 5.89 6.99 10.68v54.65c0 .37.01.74-.03 1.1-.31 2.73-2.73 3.83-5 2.27-.42-.29-.79-.66-1.15-1.02-3.48-3.48-6.99-6.93-10.43-10.45-.92-.94-1.88-1.34-3.2-1.34-19.47.03-38.93.02-58.4.02-5.22 0-9.61-3.55-10.81-8.66-.22-.95 0-1.33.98-1.24.11.01.22.02.33 0 1.53-.24 2.35.28 3.01 1.84 1.21 2.84 3.67 4.23 6.75 4.3 2.9.07 5.8.02 8.7.02 17.08 0 34.16 0 51.23-.02 1.11 0 1.93.3 2.72 1.11 3.29 3.36 6.63 6.67 9.96 9.98.32.32.7.58 1.05.87.11-.06.22-.11.32-.17Z"/></g><path d="M115.81 8.36C56.1 10.57 8.38 59.67 8.38 119.92c0 6.1.49 12.08 1.43 17.91 8.57 53.14 54.64 93.72 110.21 93.72 11.04 0 21.72-1.6 31.79-4.59 41.53-12.31 72.95-48.12 78.85-92.04.36-2.65.62-5.33.79-8.03.15-2.3.22-4.63.22-6.97 0-50.06-32.94-92.43-78.34-106.58" style="fill:none"/></svg>