<?xml version="1.0" encoding="UTF-8" standalone="no"?>
<svg
   style="enable-background:new 0 0 24 24"
   viewBox="0 0 24 24"
   xml:space="preserve"
   version="1.1"
   id="svg1"
   sodipodi:docname="settings.svg"
   inkscape:version="1.3 (0e150ed6c4, 2023-07-21)"
   xmlns:inkscape="http://www.inkscape.org/namespaces/inkscape"
   xmlns:sodipodi="http://sodipodi.sourceforge.net/DTD/sodipodi-0.dtd"
   xmlns="http://www.w3.org/2000/svg"
   xmlns:svg="http://www.w3.org/2000/svg"><defs
     id="defs1" /><sodipodi:namedview
     id="namedview1"
     pagecolor="#ffffff"
     bordercolor="#000000"
     borderopacity="0.25"
     inkscape:showpageshadow="2"
     inkscape:pageopacity="0.0"
     inkscape:pagecheckerboard="0"
     inkscape:deskcolor="#d1d1d1"
     inkscape:zoom="11.814576"
     inkscape:cx="20.694776"
     inkscape:cy="7.6177088"
     inkscape:window-width="1920"
     inkscape:window-height="1006"
     inkscape:window-x="0"
     inkscape:window-y="0"
     inkscape:window-maximized="1"
     inkscape:current-layer="svg1" /><path
     d="m 15.640304,13.139254 -0.42827,-0.249824 c -0.46396,-0.285515 -0.46396,-0.963611 0,-1.249125 l 0.42827,-0.249825 c 0.356894,-0.214135 0.463962,-0.642407 0.249826,-0.963611 L 15.533238,9.8201522 C 15.319102,9.4632594 14.890831,9.356192 14.569627,9.5703273 L 14.141356,9.8201522 C 13.677395,10.105666 13.070678,9.7487741 13.070678,9.2134351 v -0.49965 C 13.070678,8.321203 12.749474,8 12.356893,8 h -0.713786 c -0.392581,0 -0.713785,0.321203 -0.713785,0.7137851 v 0.4639601 c 0,0.5353391 -0.606717,0.8922318 -1.0706775,0.6067179 L 9.4303734,9.5703273 C 9.0734804,9.356192 8.6452094,9.4989491 8.4667626,9.8201522 L 8.1098704,10.426869 c -0.1784462,0.356893 -0.071379,0.785165 0.249825,0.999301 l 0.428271,0.249825 c 0.4639602,0.249824 0.4639602,0.96361 0,1.213435 l -0.428271,0.249824 c -0.356893,0.214136 -0.4639608,0.642408 -0.249825,0.96361 l 0.3568922,0.606718 c 0.2141358,0.356893 0.6424069,0.463961 0.9636108,0.249825 l 0.4282711,-0.214136 c 0.4639605,-0.285513 1.0706775,0.07138 1.0706775,0.606717 v 0.499651 c 0,0.392581 0.321204,0.713784 0.713785,0.713784 h 0.713786 c 0.392581,0 0.713785,-0.321203 0.713785,-0.713784 v -0.463961 c 0,-0.535339 0.606717,-0.892231 1.070678,-0.606718 l 0.428271,0.249826 c 0.356893,0.214134 0.785164,0.07138 0.963611,-0.249826 l 0.356892,-0.606717 c 0.178446,-0.392581 0.07138,-0.820853 -0.249826,-1.034989 z M 12,13.710283 c -0.785164,0 -1.427571,-0.642407 -1.427571,-1.427571 0,-0.785164 0.642407,-1.427571 1.427571,-1.427571 0.785164,0 1.427571,0.642407 1.427571,1.427571 0,0.785164 -0.642407,1.427571 -1.427571,1.427571 z"
     id="path1"
     style="fill:#009df7;fill-opacity:1;stroke-width:0.356894" /><g
     id="g1"
     transform="translate(-5.5673866,-5.5800102)"
     style="fill:#00f7ae;fill-opacity:1"><path
       d="m 17.502,27.92 a 10.42,10.42 0 1 1 9.592,-14.456 0.756,0.756 0 0 1 -1.391,0.586 8.908,8.908 0 1 0 -4.762,11.663 0.75608068,0.75608068 0 0 1 0.586,1.394 10.36,10.36 0 0 1 -4.025,0.813 z"
       id="path1-3"
       style="fill:#00f7ae;fill-opacity:1" /><path
       d="m 25.317673,12.535669 h -0.0056 l -5.539826,-0.04305 a 0.7074548,0.7074548 0 0 1 0.0046,-1.414902 h 0.0056 l 4.833311,0.03744 0.0365,-4.8333107 a 0.70745073,0.70745073 0 0 1 0.707505,-0.7018361 h 0.0045 a 0.70651495,0.70651495 0 0 1 0.702772,0.7130654 l -0.04211,5.5398264 a 0.70838652,0.70838652 0 0 1 -0.707451,0.701837 z"
       id="path2"
       style="fill:#00f7ae;fill-opacity:1;stroke-width:0.935781" /></g><g
     id="g2"
     transform="rotate(180,14.716016,14.710005)"
     style="fill:#00f7ae;fill-opacity:1"><path
       d="m 17.502,27.92 a 10.42,10.42 0 1 1 9.592,-14.456 0.756,0.756 0 0 1 -1.391,0.586 8.908,8.908 0 1 0 -4.762,11.663 0.75608068,0.75608068 0 0 1 0.586,1.394 10.36,10.36 0 0 1 -4.025,0.813 z"
       id="path1-3-5"
       style="fill:#00f7ae;fill-opacity:1" /><path
       d="m 25.382599,12.42001 h -0.0056 l -5.539787,-0.04305 a 0.70744992,0.70744992 0 0 1 0.0046,-1.414892 h 0.0056 l 4.833277,0.03744 0.0365,-4.8332781 A 0.70744593,0.70744593 0 0 1 25.424634,5.464395 h 0.0046 a 0.70651016,0.70651016 0 0 1 0.702768,0.7130601 l -0.04211,5.5397899 a 0.7083817,0.7083817 0 0 1 -0.707447,0.701832 z"
       id="path2-6"
       style="fill:#00f7ae;fill-opacity:1;stroke-width:0.935775" /></g></svg>
